
        <svg xmlns="http://www.w3.org/2000/svg" xmlns:xlink="http://www.w3.org/1999/xlink" version="1.1" width="3169.0140845070423" 
        height="1116.1412924782824" viewBox="0 0 3169.0140845070423 1116.1412924782824">
			<rect fill="#11999e" width="3169.0140845070423" height="1116.1412924782824"/>
			<g transform="scale(8.450704225352112) translate(10, 10)">
				<defs id="SvgjsDefs1384"><linearGradient id="SvgjsLinearGradient1389"><stop id="SvgjsStop1390" stop-color="#fbb040" offset="0"></stop><stop id="SvgjsStop1391" stop-color="#f9ed32" offset="1"></stop></linearGradient><linearGradient id="SvgjsLinearGradient1392"><stop id="SvgjsStop1393" stop-color="#fbb040" offset="0"></stop><stop id="SvgjsStop1394" stop-color="#f9ed32" offset="1"></stop></linearGradient></defs><g id="SvgjsG1385" featureKey="k6v3K5-0" transform="matrix(4.3728135431855275,0,0,4.3728135431855275,3.2508731231418007,-17.213892465763283)" fill="url(#SvgjsLinearGradient1389)"><path d="M11.3 5.08 l0 9.02 q0 2.16 -0.94 3.66 q-0.82 1.3 -2.24 1.98 q-1.24 0.6 -2.64 0.6 q-1.34 0 -2.72 -0.46 q-1.44 -0.5 -2.36 -1.3 l1.1 -1.92 l0.24 0.24 q0.32 0.28 0.74 0.52 q0.56 0.34 1.24 0.52 q0.84 0.24 1.78 0.24 q1.02 0 1.78 -0.44 q0.64 -0.36 1.08 -1.02 q0.36 -0.52 0.56 -1.22 q0.14 -0.5 0.2 -1.02 l0.02 -0.44 l0 -6.76 l-3.18 0 l-0.96 -2.2 l6.3 0 z M20.72 20.32 l-0.04 0 q-2.28 0 -3.56 -1.06 q-1.42 -1.12 -1.42 -3.32 l0 -6.3 l2.06 0 l0 6.3 q0 1.26 0.82 1.8 q0.7 0.5 2.12 0.5 t2.14 -0.5 q0.8 -0.54 0.8 -1.8 l0 -6.3 l2.06 0 l0 6.3 q0 2.2 -1.4 3.32 q-1.3 1.06 -3.58 1.06 z M36.26 16.56 l0.28 0 l-2.02 -3.84 l-2.46 4.74 q0.68 -0.36 1.54 -0.58 q1.24 -0.32 2.66 -0.32 z M33.46 10.7 l-0.68 -1.3 l2.22 0 l5.6 10.6 l-2.26 0 l-0.82 -1.56 l-1.24 0 q-1.18 0 -2.5 0.28 q-1.12 0.22 -2.04 0.6 q-0.84 0.32 -1.02 0.56 l-0.06 0.12 l-2.16 0 z M48.92 11.7 l-2.06 0 l0 6.22 l2.06 0 q1.5 0 2.32 -0.82 t0.82 -2.32 t-0.81 -2.29 t-2.33 -0.79 z M43.42 11.7 l-0.92 -2.06 l6.42 0 q1.56 0 2.75 0.59 t1.83 1.73 q0.66 1.16 0.66 2.77 t-0.65 2.8 t-1.84 1.83 t-2.75 0.64 l-4.22 0 l0 -8.3 l-1.28 0 z M60 16.28 l0 1.64 l6.5 0 l0 2.08 l-8.54 0 l0 -10.36 l8.16 0 l0 2.06 l-6.12 0 l0 2.52 q0.62 -0.36 1.5 -0.5 q0.68 -0.1 1.74 -0.1 l1.52 0 l0 2.06 l-1.52 0 q-1.38 0 -2 0.12 q-0.54 0.1 -1.24 0.48 z M72.46 11.7 l0 2.36 q0.62 -0.36 1.5 -0.5 q0.68 -0.1 1.74 -0.1 l1.06 0 q0.54 0 0.79 -0.22 t0.25 -0.66 t-0.28 -0.66 t-0.76 -0.22 l-4.3 0 z M72.46 16.16 l0 1.76 l4.3 0 q0.74 0 1.12 -0.22 q0.5 -0.3 0.5 -0.98 q0 -0.58 -0.39 -0.87 t-1.23 -0.29 l-1.06 0 q-1.38 0 -2 0.12 q-0.54 0.1 -1.24 0.48 z M80.44 16.759999999999998 q0 1.52 -0.98 2.38 t-2.7 0.86 l-6.36 0 l0 -10.36 l6.36 0 q0.84 0 1.56 0.37 t1.15 1.04 t0.43 1.51 q0 1.16 -0.68 1.78 q0.58 0.34 0.9 0.99 t0.32 1.43 z"></path></g><g id="SvgjsG1386" featureKey="SbIu4p-0" transform="matrix(1.214833219915875,0,0,1.214833219915875,24.861893254894802,87.3427139316899)" fill="url(#SvgjsLinearGradient1392)"><path d="M10.66 5.84 l0 1.56 l-7.22 0 l0 4.44 l6.74 0 l0 1.56 l-6.74 0 l0 5.04 l7.58 0 l0 1.56 l-9.26 0 l0 -14.16 l8.9 0 z M28.843999999999998 5.84 l3.82 5.54 l3.78 -5.54 l2.1 0 l-4.76 6.7 l5.22 7.46 l-2.22 0 l-4.2 -6.28 l-4.22 6.28 l-2.08 0 l5.16 -7.46 l-4.76 -6.7 l2.16 0 z M61.568 5.48 q1.66 0 2.94 0.59 t2.06 1.63 l-1.46 1.06 q-0.64 -0.86 -1.58 -1.29 t-1.96 -0.43 q-2.26 0 -3.81 1.72 t-1.59 4.16 q0 2.52 1.54 4.19 t3.86 1.69 q2.54 0 4.1 -1.98 l1.26 1.06 q-1.86 2.48 -5.36 2.48 q-3.1 0 -5.13 -2.14 t-2.07 -5.3 q0 -3.16 2.05 -5.28 t5.15 -2.16 z M92.65199999999999 5.84 l0 1.56 l-7.22 0 l0 4.44 l6.74 0 l0 1.56 l-6.74 0 l0 5.04 l7.58 0 l0 1.56 l-9.26 0 l0 -14.16 l8.9 0 z M111.77599999999998 5.84 l0 12.6 l6.48 0 l0 1.56 l-8.16 0 l0 -14.16 l1.68 0 z M136.26 5.84 l0 12.6 l6.48 0 l0 1.56 l-8.16 0 l0 -14.16 l1.68 0 z M167.964 5.84 l0 1.56 l-7.22 0 l0 4.44 l6.74 0 l0 1.56 l-6.74 0 l0 5.04 l7.58 0 l0 1.56 l-9.26 0 l0 -14.16 l8.9 0 z M187.528 5.84 l8.2 11.76 l0.04 0 l0 -11.76 l1.68 0 l0 14.16 l-2.12 0 l-8.2 -11.76 l-0.04 0 l0 11.76 l-1.68 0 l0 -14.16 l2.12 0 z M221.832 5.48 q1.66 0 2.94 0.59 t2.06 1.63 l-1.46 1.06 q-0.64 -0.86 -1.58 -1.29 t-1.96 -0.43 q-2.26 0 -3.81 1.72 t-1.59 4.16 q0 2.52 1.54 4.19 t3.86 1.69 q2.54 0 4.1 -1.98 l1.26 1.06 q-1.86 2.48 -5.36 2.48 q-3.1 0 -5.13 -2.14 t-2.07 -5.3 q0 -3.16 2.05 -5.28 t5.15 -2.16 z M252.916 5.84 l0 1.56 l-7.22 0 l0 4.44 l6.74 0 l0 1.56 l-6.74 0 l0 5.04 l7.58 0 l0 1.56 l-9.26 0 l0 -14.16 l8.9 0 z"></path></g>
			</g>
		</svg>
	